# xmcd CD database file
#
# Track frame offsets:
#	150
#	7519
#	13429
#	22231
#	39612
#	62742
#	90389
#	113789
#	154485
#	170767
#	187349
#	228378
#	277104
#
# Disc length: 3952 seconds
#
# Revision: 3
# Processed by: cddbd v1.5.2PL0 Copyright (c) Steve Scherf et al.
# Submitted via: CDex 1.76
#
DISCID=b40f6e0d
DTITLE=Various Artist - JazzPiano History cd 18 - Fusion
DYEAR=2006
DGENRE=Jazz
TTITLE0=Bill Evans - I Got it Bad, And That Ain't Good
TTITLE1=Bill Evans - Waltz for Debbie
TTITLE2=Bill Evans - My Romance
TTITLE3=Bill Evans Trio - Easy Living
TTITLE4=Bill Evans Trio - Speak Low
TTITLE5=Ahmad Jamal - Waltz for Debbie
TTITLE6=Ahmad Jamal - Autumn In New York
TTITLE7=Chick Corea - Fiesta Piano Solo
TTITLE8=McCoy Tyner - Giant Steps
TTITLE9=McCoy Tyner - Rythm-A-Ning
TTITLE10=McCoy Tyner Trio - Senor Carlos
TTITLE11=Cecil Taylor Trio - This Nearly Was Mine
TTITLE12=Cecil Taylor Trio - Port of Call
EXTD=YEAR: 2006
EXTT0=
EXTT1=
EXTT2=
EXTT3=
EXTT4=
EXTT5=
EXTT6=
EXTT7=
EXTT8=
EXTT9=
EXTT10=
EXTT11=
EXTT12=
PLAYORDER=
